<svg width="240" height="80" viewBox="0 0 240 80" fill="none" xmlns="http://www.w3.org/2000/svg">
<g id="Group">
<g id="Group_2">
<g id="Group_3">
<path id="Vector" d="M220.888 -0.000228281H19.1229C18.3874 -0.000228281 17.6608 -0.000228281 16.9273 0.00377172C16.3133 0.00777172 15.7041 0.0193917 15.0842 0.0291717C13.7375 0.0449753 12.3939 0.163124 11.0652 0.382592C9.73831 0.606837 8.45301 1.0296 7.25274 1.63659C6.05395 2.24872 4.95857 3.04411 4.00636 3.99391C3.04914 4.94105 2.25123 6.0358 1.6433 7.23609C1.03369 8.43399 0.610991 9.71765 0.389791 11.0427C0.166488 12.3661 0.0463264 13.7048 0.0303851 15.0467C0.011773 15.6599 0.00980746 16.2752 0 16.8885V63.117C0.00980746 63.738 0.011773 64.3396 0.0303851 64.9608C0.0463313 66.3026 0.166493 67.6412 0.389791 68.9646C0.610381 70.2904 1.03311 71.5748 1.6433 72.7732C2.25095 73.9696 3.04898 75.0599 4.00636 76.0018C4.95496 76.9558 6.05104 77.7517 7.25274 78.3592C8.453 78.9678 9.73816 79.3931 11.0652 79.6208C12.3941 79.8385 13.7376 79.9567 15.0842 79.9744C15.7041 79.988 16.3133 79.9958 16.9273 79.9958C17.6608 79.9998 18.3875 79.9998 19.1229 79.9998H220.888C221.609 79.9998 222.341 79.9998 223.062 79.9958C223.673 79.9958 224.3 79.988 224.911 79.9744C226.255 79.9576 227.596 79.8394 228.922 79.6208C230.253 79.3915 231.543 78.9663 232.749 78.3592C233.95 77.7514 235.045 76.9555 235.993 76.0018C236.948 75.0562 237.747 73.9667 238.363 72.7732C238.968 71.574 239.387 70.2897 239.604 68.9646C239.828 67.641 239.952 66.3027 239.977 64.9608C239.984 64.3396 239.984 63.738 239.984 63.117C240 62.3904 240 61.6678 240 60.9294V19.072C240 18.3396 240 17.6131 239.984 16.8885C239.984 16.2752 239.984 15.6599 239.977 15.0467C239.952 13.7046 239.828 12.3662 239.604 11.0427C239.386 9.71834 238.968 8.43478 238.363 7.23601C237.125 4.83016 235.161 2.87182 232.749 1.63641C231.543 1.03091 230.253 0.608253 228.922 0.382412C227.596 0.161977 226.255 0.0437872 224.911 0.0288917C224.3 0.0191317 223.673 0.00741172 223.062 0.00351172C222.341 -0.000488281 221.609 -0.000488281 220.888 -0.000488281V-0.000228281Z" fill="#A6A6A6"/>
<path id="Vector_2" d="M16.9371 78.25C16.3261 78.25 15.7297 78.2422 15.1235 78.2286C13.8675 78.2123 12.6145 78.1032 11.3747 77.9024C10.2186 77.7038 9.09873 77.3345 8.05192 76.8066C7.0147 76.2831 6.06867 75.5965 5.25007 74.7734C4.41963 73.96 3.72825 73.0165 3.20332 71.9804C2.67262 70.9376 2.30533 69.8198 2.11427 68.666C1.90794 67.4262 1.79631 66.1726 1.78034 64.916C1.76762 64.4942 1.75098 63.0898 1.75098 63.0898V16.8887C1.75098 16.8887 1.76871 15.5059 1.78044 15.0996C1.79573 13.845 1.90672 12.5933 2.11243 11.3555C2.30384 10.1985 2.67141 9.0775 3.2024 8.03126C3.72539 6.99589 4.41294 6.05172 5.23838 5.23536C6.06289 4.41124 7.01195 3.72121 8.05093 3.19042C9.09535 2.66419 10.2131 2.29747 11.3669 2.10254C12.6107 1.89967 13.8681 1.78999 15.1284 1.77442L16.9381 1.75H223.052L224.884 1.7754C226.132 1.7902 227.378 1.8989 228.611 2.10058C229.776 2.29795 230.906 2.66723 231.962 3.19628C234.043 4.26597 235.737 5.95833 236.806 8.03614C237.328 9.07516 237.69 10.187 237.879 11.334C238.087 12.582 238.204 13.8435 238.227 15.1084C238.233 15.6748 238.233 16.2832 238.233 16.8887C238.249 17.6387 238.249 18.3525 238.249 19.0723V60.9296C238.249 61.6562 238.249 62.3652 238.233 63.08C238.233 63.7304 238.233 64.3262 238.225 64.9394C238.202 66.1817 238.088 67.4207 237.883 68.6464C237.696 69.8085 237.33 70.935 236.8 71.9864C236.271 73.0112 235.584 73.9465 234.763 74.7578C233.943 75.5854 232.996 76.2759 231.956 76.8028C230.903 77.3348 229.775 77.7055 228.611 77.9024C227.371 78.1043 226.118 78.2134 224.862 78.2286C224.274 78.2422 223.659 78.25 223.062 78.25L220.888 78.254L16.9371 78.25Z" fill="black"/>
</g>
<g id="&#60;Group&#62;">
<g id="&#60;Group&#62;_2">
<g id="&#60;Group&#62;_3">
<path id="&#60;Path&#62;" d="M49.6767 40.6011C49.6983 38.9318 50.143 37.2951 50.9693 35.8432C51.7957 34.3913 52.9769 33.1714 54.4031 32.297C53.4971 31.0067 52.3018 29.9448 50.9123 29.1957C49.5227 28.4466 47.9772 28.0309 46.3984 27.9817C43.0304 27.6291 39.7654 29.9913 38.0492 29.9913C36.2997 29.9913 33.6573 28.0167 30.8119 28.075C28.9714 28.1343 27.1777 28.6681 25.6055 29.6242C24.0334 30.5803 22.7364 31.9262 21.841 33.5308C17.9621 40.2276 20.8554 50.0697 24.571 55.4829C26.43 58.1336 28.6027 61.0945 31.4455 60.9895C34.2274 60.8745 35.2664 59.2206 38.6244 59.2206C41.9512 59.2206 42.926 60.9895 45.8266 60.9228C48.8117 60.8745 50.6925 58.2603 52.4862 55.5845C53.8219 53.6958 54.8497 51.6083 55.5316 49.3995C53.7973 48.668 52.3174 47.4437 51.2762 45.8791C50.235 44.3145 49.6788 42.4789 49.6767 40.6011Z" fill="white"/>
<path id="&#60;Path&#62;_2" d="M44.1984 24.4217C45.826 22.4733 46.6278 19.9689 46.4337 17.4404C43.947 17.7009 41.6501 18.886 40.0005 20.7596C39.1939 21.675 38.5762 22.7399 38.1826 23.8934C37.789 25.0469 37.6273 26.2665 37.7066 27.4824C38.9504 27.4952 40.1809 27.2264 41.3053 26.6962C42.4298 26.166 43.419 25.3883 44.1984 24.4217Z" fill="white"/>
</g>
</g>
<g id="Group_4">
<path id="Vector_3" d="M84.8421 54.2794H75.3487L73.0689 60.9922H69.0479L78.0398 36.1562H82.2175L91.2095 60.9922H87.1199L84.8421 54.2794ZM76.3319 51.1817H83.857L80.1474 40.2872H80.0436L76.3319 51.1817Z" fill="white"/>
<path id="Vector_4" d="M110.629 51.9394C110.629 57.5664 107.609 61.1816 103.051 61.1816C101.897 61.2418 100.748 60.9766 99.738 60.4163C98.7276 59.856 97.8958 59.0233 97.3379 58.0136H97.2516V66.9823H93.5244V42.8847H97.1322V45.8964H97.2008C97.7843 44.8915 98.6302 44.0631 99.6483 43.4994C100.666 42.9357 101.819 42.6578 102.983 42.6952C107.591 42.6953 110.629 46.3281 110.629 51.9394ZM106.798 51.9394C106.798 48.2734 104.898 45.8632 101.999 45.8632C99.1515 45.8632 97.236 48.3242 97.236 51.9394C97.236 55.5878 99.1515 58.0312 101.999 58.0312C104.898 58.0312 106.798 55.6386 106.798 51.9394Z" fill="white"/>
<path id="Vector_5" d="M130.615 51.9394C130.615 57.5663 127.595 61.1816 123.037 61.1816C121.882 61.2418 120.734 60.9766 119.724 60.4163C118.713 59.856 117.882 59.0233 117.324 58.0136H117.237V66.9823H113.51V42.8847H117.118V45.8964H117.187C117.77 44.8915 118.616 44.0631 119.634 43.4994C120.652 42.9357 121.804 42.6578 122.968 42.6952C127.577 42.6952 130.615 46.328 130.615 51.9394ZM126.784 51.9394C126.784 48.2734 124.884 45.8632 121.985 45.8632C119.137 45.8632 117.222 48.3241 117.222 51.9394C117.222 55.5878 119.137 58.0312 121.985 58.0312C124.884 58.0312 126.784 55.6386 126.784 51.9394H126.784Z" fill="white"/>
<path id="Vector_6" d="M143.824 54.0724C144.1 56.5353 146.499 58.1524 149.778 58.1524C152.92 58.1524 155.18 56.5352 155.18 54.3145C155.18 52.3867 153.817 51.2325 150.589 50.4414L147.361 49.666C142.788 48.5645 140.664 46.4316 140.664 42.9707C140.664 38.6855 144.409 35.7422 149.727 35.7422C154.99 35.7422 158.598 38.6855 158.719 42.9707H154.956C154.731 40.4922 152.677 38.9961 149.674 38.9961C146.672 38.9961 144.617 40.5098 144.617 42.7129C144.617 44.4688 145.929 45.502 149.139 46.2929L151.883 46.9648C156.993 48.1699 159.117 50.2168 159.117 53.8495C159.117 58.496 155.405 61.4062 149.502 61.4062C143.978 61.4062 140.249 58.5644 140.008 54.0722L143.824 54.0724Z" fill="white"/>
<path id="Vector_7" d="M167.16 38.5996V42.8848H170.613V45.8281H167.16V55.8105C167.16 57.3613 167.852 58.084 169.37 58.084C169.78 58.0769 170.189 58.0481 170.596 57.998V60.9238C169.913 61.0509 169.22 61.1085 168.526 61.0956C164.849 61.0956 163.416 59.7187 163.416 56.207V45.8281H160.775V42.8848H163.416V38.5996H167.16Z" fill="white"/>
<path id="Vector_8" d="M172.613 51.9394C172.613 46.2422 175.978 42.6621 181.225 42.6621C186.49 42.6621 189.839 46.2421 189.839 51.9394C189.839 57.6523 186.508 61.2168 181.225 61.2168C175.945 61.2168 172.613 57.6523 172.613 51.9394ZM186.041 51.9394C186.041 48.0312 184.245 45.7246 181.225 45.7246C178.205 45.7246 176.411 48.0488 176.411 51.9394C176.411 55.8633 178.205 58.1523 181.225 58.1523C184.245 58.1523 186.041 55.8633 186.041 51.9394H186.041Z" fill="white"/>
<path id="Vector_9" d="M192.912 42.885H196.467V45.967H196.553C196.794 45.0044 197.359 44.1538 198.155 43.558C198.95 42.9622 199.927 42.6577 200.921 42.6955C201.35 42.694 201.779 42.7406 202.198 42.8342V46.3108C201.656 46.1455 201.09 46.0697 200.523 46.0862C199.982 46.0643 199.442 46.1595 198.941 46.3652C198.44 46.571 197.989 46.8825 197.62 47.2783C197.251 47.674 196.973 48.1448 196.803 48.6581C196.634 49.1714 196.578 49.7152 196.639 50.2522V60.9924H192.912L192.912 42.885Z" fill="white"/>
<path id="Vector_10" d="M219.383 55.6738C218.881 58.9609 215.671 61.2168 211.564 61.2168C206.282 61.2168 203.003 57.6875 203.003 52.0254C203.003 46.3457 206.299 42.6621 211.407 42.6621C216.431 42.6621 219.59 46.1035 219.59 51.5937V52.8672H206.765V53.0918C206.706 53.7582 206.79 54.4295 207.011 55.0612C207.232 55.6929 207.585 56.2705 208.047 56.7555C208.509 57.2406 209.069 57.6222 209.691 57.8748C210.312 58.1274 210.98 58.2453 211.65 58.2207C212.531 58.303 213.415 58.0996 214.17 57.6407C214.926 57.1818 215.513 56.492 215.844 55.6738L219.383 55.6738ZM206.783 50.2695H215.861C215.895 49.6703 215.804 49.0707 215.594 48.5083C215.384 47.9459 215.059 47.4328 214.641 47.0013C214.223 46.5697 213.72 46.2291 213.163 46.0006C212.607 45.7722 212.009 45.6609 211.407 45.6738C210.8 45.6702 210.199 45.7865 209.637 46.016C209.075 46.2455 208.565 46.5836 208.135 47.0109C207.705 47.4381 207.364 47.9461 207.132 48.5054C206.9 49.0647 206.781 49.6643 206.783 50.2695V50.2695Z" fill="white"/>
</g>
</g>
</g>
<g id="&#60;Group&#62;_4">
<g id="Group_5">
<path id="Vector_11" d="M75.8646 17.4613C76.646 17.4054 77.4302 17.5231 78.1604 17.806C78.8907 18.0888 79.5489 18.5298 80.0876 19.097C80.6263 19.6643 81.032 20.3437 81.2755 21.0862C81.519 21.8288 81.5942 22.6159 81.4956 23.391C81.4956 27.2035 79.4293 29.395 75.8646 29.395H71.542V17.4613H75.8646ZM73.4007 27.7073H75.657C76.2154 27.7406 76.7742 27.6493 77.2927 27.4401C77.8112 27.2308 78.2765 26.9089 78.6545 26.4978C79.0325 26.0867 79.3139 25.5966 79.4781 25.0634C79.6423 24.5302 79.6851 23.9671 79.6036 23.4153C79.6792 22.8656 79.632 22.3061 79.4653 21.7768C79.2986 21.2474 79.0165 20.7614 78.6394 20.3536C78.2622 19.9457 77.7992 19.6261 77.2836 19.4176C76.768 19.2091 76.2125 19.117 75.657 19.1477H73.4007V27.7073Z" fill="white"/>
<path id="Vector_12" d="M83.5953 24.8881C83.5386 24.2963 83.6065 23.6991 83.7947 23.135C83.9829 22.5708 84.2872 22.0522 84.6882 21.6122C85.0893 21.1722 85.5781 20.8207 86.1233 20.5801C86.6685 20.3396 87.2581 20.2153 87.8543 20.2153C88.4505 20.2153 89.0402 20.3396 89.5854 20.5801C90.1306 20.8207 90.6194 21.1722 91.0204 21.6122C91.4214 22.0522 91.7258 22.5708 91.914 23.135C92.1022 23.6991 92.1701 24.2963 92.1133 24.8881C92.1712 25.4805 92.1041 26.0785 91.9164 26.6435C91.7287 27.2086 91.4245 27.7282 91.0234 28.1691C90.6223 28.6099 90.1331 28.9622 89.5873 29.2032C89.0416 29.4443 88.4513 29.5688 87.8543 29.5688C87.2574 29.5688 86.6671 29.4443 86.1213 29.2032C85.5756 28.9622 85.0864 28.6099 84.6853 28.1691C84.2842 27.7282 83.98 27.2086 83.7923 26.6435C83.6046 26.0785 83.5375 25.4805 83.5953 24.8881ZM90.2801 24.8881C90.2801 22.9359 89.4006 21.7943 87.8573 21.7943C86.308 21.7943 85.4365 22.9359 85.4365 24.8881C85.4365 26.8559 86.3081 27.9887 87.8573 27.9887C89.4007 27.9887 90.2801 26.848 90.2801 24.8881H90.2801Z" fill="white"/>
<path id="Vector_13" d="M103.436 29.395H101.587L99.7203 22.7622H99.5793L97.7206 29.395H95.8893L93.3999 20.3892H95.2077L96.8255 27.2612H96.9587L98.8155 20.3892H100.525L102.382 27.2612H102.523L104.133 20.3892H105.915L103.436 29.395Z" fill="white"/>
<path id="Vector_14" d="M108.009 20.3892H109.725V21.8199H109.858C110.084 21.3061 110.465 20.8753 110.948 20.5877C111.431 20.3001 111.992 20.17 112.553 20.2154C112.993 20.1825 113.434 20.2485 113.844 20.4087C114.255 20.5689 114.624 20.8191 114.924 21.1408C115.224 21.4625 115.448 21.8474 115.579 22.2671C115.709 22.6867 115.744 23.1303 115.679 23.565V29.395H113.897V24.0113C113.897 22.5641 113.266 21.8443 111.948 21.8443C111.65 21.8305 111.352 21.8811 111.075 21.9928C110.798 22.1044 110.549 22.2745 110.344 22.4912C110.139 22.708 109.984 22.9664 109.888 23.2486C109.793 23.5309 109.76 23.8304 109.792 24.1265V29.3951H108.009L108.009 20.3892Z" fill="white"/>
<path id="Vector_15" d="M118.519 16.8735H120.301V29.395H118.519V16.8735Z" fill="white"/>
<path id="Vector_16" d="M122.779 24.8883C122.723 24.2964 122.791 23.6992 122.979 23.1351C123.167 22.5709 123.471 22.0522 123.873 21.6122C124.274 21.1722 124.762 20.8207 125.308 20.5801C125.853 20.3396 126.443 20.2153 127.039 20.2153C127.635 20.2153 128.225 20.3396 128.77 20.5801C129.315 20.8207 129.804 21.1722 130.205 21.6122C130.606 22.0522 130.911 22.5709 131.099 23.1351C131.287 23.6992 131.355 24.2964 131.298 24.8883C131.356 25.4807 131.289 26.0787 131.101 26.6437C130.913 27.2088 130.609 27.7284 130.208 28.1692C129.807 28.61 129.318 28.9623 128.772 29.2034C128.226 29.4444 127.636 29.5689 127.039 29.5689C126.442 29.5689 125.852 29.4444 125.306 29.2034C124.76 28.9623 124.271 28.61 123.87 28.1692C123.469 27.7284 123.164 27.2088 122.977 26.6437C122.789 26.0787 122.722 25.4807 122.779 24.8883ZM129.464 24.8883C129.464 22.9361 128.585 21.7945 127.041 21.7945C125.492 21.7945 124.621 22.9361 124.621 24.8883C124.621 26.8561 125.492 27.9889 127.041 27.9889C128.585 27.9888 129.464 26.8482 129.464 24.8883H129.464Z" fill="white"/>
<path id="Vector_17" d="M133.174 26.8481C133.174 25.227 134.385 24.2925 136.533 24.1597L138.98 24.019V23.2417C138.98 22.2905 138.349 21.7534 137.131 21.7534C136.136 21.7534 135.446 22.1177 135.248 22.7544H133.523C133.705 21.2075 135.164 20.2153 137.213 20.2153C139.477 20.2153 140.754 21.3393 140.754 23.2417V29.395H139.038V28.1294H138.897C138.611 28.5834 138.209 28.9535 137.733 29.2019C137.256 29.4503 136.722 29.5682 136.185 29.5434C135.806 29.5827 135.422 29.5424 135.06 29.425C134.697 29.3076 134.363 29.1157 134.08 28.8618C133.796 28.6079 133.569 28.2975 133.413 27.9506C133.257 27.6038 133.176 27.2282 133.174 26.8481ZM138.98 26.0786V25.3257L136.774 25.4663C135.531 25.5493 134.966 25.9712 134.966 26.7651C134.966 27.5757 135.672 28.0473 136.641 28.0473C136.925 28.076 137.212 28.0474 137.485 27.9632C137.758 27.879 138.011 27.741 138.229 27.5573C138.447 27.3736 138.626 27.1481 138.755 26.894C138.884 26.64 138.96 26.3627 138.98 26.0786Z" fill="white"/>
<path id="Vector_18" d="M143.097 24.8882C143.097 22.0425 144.564 20.2398 146.845 20.2398C147.41 20.2138 147.97 20.3486 148.46 20.6284C148.951 20.9082 149.351 21.3214 149.615 21.8198H149.748V16.8735H151.53V29.395H149.823V27.9722H149.682C149.398 28.4671 148.983 28.8752 148.483 29.1522C147.983 29.4291 147.417 29.5644 146.845 29.5434C144.548 29.5435 143.097 27.7408 143.097 24.8882ZM144.938 24.8882C144.938 26.7984 145.841 27.9478 147.351 27.9478C148.853 27.9478 149.781 26.7818 149.781 24.896C149.781 23.0191 148.843 21.8365 147.351 21.8365C145.85 21.8365 144.938 22.9937 144.938 24.8882H144.938Z" fill="white"/>
<path id="Vector_19" d="M158.905 24.8881C158.848 24.2963 158.916 23.6991 159.104 23.135C159.292 22.5708 159.597 22.0522 159.998 21.6122C160.399 21.1722 160.888 20.8207 161.433 20.5801C161.978 20.3396 162.568 20.2153 163.164 20.2153C163.76 20.2153 164.35 20.3396 164.895 20.5801C165.44 20.8207 165.929 21.1722 166.33 21.6122C166.731 22.0522 167.035 22.5708 167.224 23.135C167.412 23.6991 167.48 24.2963 167.423 24.8881C167.481 25.4805 167.414 26.0785 167.226 26.6435C167.038 27.2086 166.734 27.7282 166.333 28.1691C165.932 28.6099 165.443 28.9622 164.897 29.2032C164.351 29.4443 163.761 29.5688 163.164 29.5688C162.567 29.5688 161.977 29.4443 161.431 29.2032C160.885 28.9622 160.396 28.6099 159.995 28.1691C159.594 27.7282 159.29 27.2086 159.102 26.6435C158.914 26.0785 158.847 25.4805 158.905 24.8881ZM165.59 24.8881C165.59 22.9359 164.71 21.7943 163.167 21.7943C161.618 21.7943 160.746 22.9359 160.746 24.8881C160.746 26.8559 161.618 27.9887 163.167 27.9887C164.71 27.9887 165.59 26.848 165.59 24.8881Z" fill="white"/>
<path id="Vector_20" d="M169.814 20.3892H171.53V21.8199H171.663C171.889 21.3061 172.27 20.8753 172.753 20.5877C173.236 20.3001 173.797 20.17 174.358 20.2154C174.797 20.1825 175.239 20.2485 175.649 20.4087C176.059 20.5689 176.428 20.8191 176.728 21.1408C177.029 21.4625 177.252 21.8474 177.383 22.2671C177.514 22.6867 177.548 23.1303 177.484 23.565V29.395H175.702V24.0113C175.702 22.5641 175.071 21.8443 173.753 21.8443C173.454 21.8305 173.157 21.8811 172.88 21.9928C172.603 22.1044 172.353 22.2745 172.149 22.4912C171.944 22.708 171.788 22.9664 171.693 23.2486C171.598 23.5309 171.565 23.8304 171.596 24.1265V29.3951H169.814V20.3892Z" fill="white"/>
<path id="Vector_21" d="M187.555 18.147V20.4302H189.512V21.9273H187.555V26.5581C187.555 27.5015 187.945 27.9146 188.832 27.9146C189.06 27.9138 189.286 27.9001 189.512 27.8735V29.354C189.192 29.4111 188.868 29.4415 188.543 29.4448C186.56 29.4448 185.771 28.7495 185.771 27.0132V21.9272H184.337V20.4301H185.771V18.147H187.555Z" fill="white"/>
<path id="Vector_22" d="M191.946 16.8735H193.713V21.8364H193.854C194.091 21.3178 194.482 20.8846 194.975 20.5959C195.468 20.3072 196.038 20.1771 196.608 20.2232C197.045 20.1994 197.482 20.2722 197.888 20.4363C198.293 20.6004 198.658 20.8517 198.955 21.1724C199.252 21.4931 199.474 21.8752 199.606 22.2915C199.738 22.7077 199.776 23.1479 199.718 23.5806V29.395H197.934V24.019C197.934 22.5806 197.262 21.852 196.003 21.852C195.696 21.827 195.388 21.869 195.1 21.9751C194.811 22.0812 194.55 22.2488 194.333 22.4663C194.117 22.6838 193.95 22.9458 193.846 23.2341C193.741 23.5224 193.701 23.8299 193.729 24.1352V29.395H191.946L191.946 16.8735Z" fill="white"/>
<path id="Vector_23" d="M210.11 26.9635C209.868 27.7866 209.344 28.4986 208.628 28.9749C207.913 29.4512 207.052 29.6615 206.197 29.569C205.602 29.5846 205.011 29.471 204.464 29.2359C203.918 29.0009 203.429 28.65 203.032 28.2078C202.635 27.7655 202.34 27.2424 202.166 26.6747C201.992 26.1071 201.944 25.5085 202.025 24.9206C201.946 24.3308 201.995 23.7309 202.168 23.1616C202.342 22.5922 202.636 22.0667 203.031 21.6206C203.426 21.1744 203.912 20.8181 204.457 20.5757C205.002 20.3332 205.593 20.2104 206.189 20.2155C208.702 20.2155 210.218 21.9275 210.218 24.7555V25.3757H203.841V25.4753C203.813 25.8058 203.855 26.1384 203.963 26.4519C204.072 26.7654 204.245 27.0528 204.471 27.2957C204.698 27.5387 204.973 27.7317 205.278 27.8625C205.584 27.9933 205.914 28.0589 206.246 28.0553C206.672 28.1063 207.104 28.0297 207.487 27.8353C207.87 27.6409 208.186 27.3374 208.395 26.9635L210.11 26.9635ZM203.841 24.0612H208.402C208.425 23.7589 208.384 23.4553 208.282 23.1699C208.179 22.8845 208.018 22.6235 207.809 22.4038C207.6 22.1841 207.347 22.0105 207.066 21.8941C206.785 21.7778 206.483 21.7212 206.179 21.7282C205.871 21.7243 205.565 21.782 205.28 21.8979C204.994 22.0138 204.735 22.1855 204.517 22.403C204.299 22.6204 204.127 22.8791 204.011 23.1639C203.895 23.4487 203.837 23.7538 203.841 24.0612H203.841Z" fill="white"/>
</g>
</g>
</g>
</svg>
