<svg width="845" height="195" viewBox="0 0 845 195" fill="none" xmlns="http://www.w3.org/2000/svg">
<g clipPath="url(#clip0_690_43877)">
<path fill-rule="evenodd" clip-rule="evenodd" d="M125.505 18.9827C124.229 11.3542 122.445 3.97462 114.71 0H55.3366C55.2987 0.041942 55.2627 0.087568 55.2266 0.133289L55.2265 0.133327C55.1422 0.240058 55.0575 0.347301 54.9477 0.409404C51.6963 2.24149 49.6492 5.04248 48.3391 8.47467C46.4149 13.5274 45.5723 18.7951 45.1936 24.1547C45.0263 26.5055 45.3812 26.8604 47.7319 26.8604C56.6272 26.8626 65.521 26.8619 74.4153 26.8611C78.8626 26.8608 83.3101 26.8604 87.7579 26.8604C91.7075 26.8604 95.6568 26.8608 99.606 26.8611C107.504 26.8619 115.403 26.8626 123.304 26.8604C125.471 26.8604 125.942 26.3998 125.866 24.2197C125.855 23.9217 125.846 23.6232 125.837 23.3245C125.791 21.8691 125.745 20.4094 125.505 18.9827ZM166.02 59.701C167.06 59.701 168.087 59.6703 168.827 58.7732V56.2996C168.567 56.1602 168.552 55.9238 168.537 55.6898C168.532 55.6202 168.528 55.5507 168.517 55.4841C166.535 43.615 156.968 34.5705 144.949 33.3832C140.533 32.9465 136.097 33.0129 131.664 33.0793H131.664H131.664H131.663C129.966 33.1047 128.269 33.1302 126.574 33.1273C104.684 33.0997 82.7953 33.114 60.9074 33.1284H60.9045H60.904H60.9035C50.3846 33.1353 39.8657 33.1422 29.3468 33.1445C27.276 33.1445 25.2323 33.3525 23.2093 33.755C11.7357 36.041 2.88572 46.1668 2.01574 57.9134C1.92705 59.1416 2.42857 59.626 3.56467 59.6432C3.9736 59.6513 4.38254 59.6507 4.79148 59.6501H4.79209L5.11017 59.6498L166.02 59.701ZM117.545 131.939V165.489C117.545 177.922 110.251 187.788 98.3269 191.446C96.7573 191.927 95.1573 192.346 93.5402 192.643C91.7969 192.967 91.1623 192.432 90.954 190.692C90.897 190.196 90.8981 189.696 90.8992 189.197L90.8995 188.993C90.8982 186.5 90.8994 184.007 90.9006 181.515C90.9026 177.513 90.9045 173.511 90.8962 169.508C90.8788 160.076 90.8596 150.644 90.8405 141.213C90.8069 124.67 90.7733 108.127 90.7493 91.5852C90.746 86.8223 91.2442 82.1346 93.066 77.6585C95.7067 71.1764 99.8417 68.3651 106.846 68.3617L106.897 68.3617C124.553 68.3446 142.212 68.3274 159.867 68.307C160.668 68.3056 161.469 68.2837 162.269 68.2618L162.27 68.2618C163.374 68.2316 164.478 68.2014 165.582 68.2251C167.731 68.2696 168.349 69.0303 168.113 71.1183C166.704 83.6973 155.985 93.3252 143.324 93.3592C138.415 93.3746 133.509 93.3715 128.603 93.3683C125.936 93.3666 123.269 93.3648 120.602 93.3661C117.941 93.3661 117.545 93.7584 117.545 96.3785V131.939ZM79.2006 189.955V139.386C79.2006 135.038 79.1998 130.69 79.1991 126.341C79.197 114.814 79.195 103.286 79.2073 91.759C79.2108 88.0265 78.8321 84.3488 77.9041 80.7424C76.9624 77.0885 75.5021 73.7145 72.4009 71.3228C68.7129 68.4741 64.3802 67.9657 59.9448 68.1261C52.3744 68.3989 44.8037 68.4025 37.2331 68.4025C30.4541 68.4025 23.6751 68.3781 16.8953 68.3538C12.596 68.3383 8.29646 68.3229 3.9964 68.3137C2.06877 68.3103 1.72078 68.7231 1.91184 70.603C3.25264 83.7687 13.788 93.3283 27.0151 93.3623C31.3694 93.3722 35.7236 93.3696 40.0779 93.3669C43.2464 93.3649 46.415 93.363 49.5835 93.3659C52.0673 93.3692 52.5243 93.8469 52.5517 96.375C52.5585 96.7747 52.5552 97.1775 52.5519 97.5804L52.5517 97.6099C52.547 105.547 52.5392 113.485 52.5315 121.422C52.5172 136.114 52.503 150.806 52.5074 165.496C52.5141 179.839 62.6607 191.183 76.5088 192.411C79.1561 192.646 79.2006 192.616 79.2006 189.955Z" fill="url(#paint0_linear_690_43877)"/>
<path d="M837.378 133.343V165.522H832.1V151.447H816.959V165.522H811.681V133.343H816.959V147.141H832.1V133.343H837.378Z" fill="#B0B0B0"/>
<path d="M761.147 149.364C761.147 146.215 761.872 143.391 763.323 140.891C764.805 138.39 766.796 136.446 769.296 135.057C771.827 133.637 774.59 132.927 777.584 132.927C781.01 132.927 784.051 133.776 786.705 135.473C789.391 137.14 791.335 139.517 792.539 142.604H786.196C785.362 140.906 784.205 139.64 782.723 138.807C781.242 137.974 779.529 137.557 777.584 137.557C775.454 137.557 773.556 138.035 771.889 138.992C770.222 139.949 768.91 141.323 767.953 143.113C767.027 144.903 766.564 146.987 766.564 149.364C766.564 151.74 767.027 153.824 767.953 155.614C768.91 157.405 770.222 158.794 771.889 159.781C773.556 160.738 775.454 161.217 777.584 161.217C779.529 161.217 781.242 160.8 782.723 159.967C784.205 159.133 785.362 157.868 786.196 156.17H792.539C791.335 159.257 789.391 161.633 786.705 163.3C784.051 164.967 781.01 165.801 777.584 165.801C774.559 165.801 771.796 165.106 769.296 163.717C766.796 162.297 764.805 160.337 763.323 157.837C761.872 155.337 761.147 152.512 761.147 149.364Z" fill="#B0B0B0"/>
<path d="M737.059 158.947H723.585L721.27 165.522H715.76L727.289 133.296H733.401L744.93 165.522H739.374L737.059 158.947ZM735.577 154.641L730.345 139.686L725.067 154.641H735.577Z" fill="#B0B0B0"/>
<path d="M683.062 165.847C680.068 165.847 677.305 165.152 674.774 163.763C672.273 162.343 670.283 160.383 668.801 157.883C667.35 155.352 666.625 152.512 666.625 149.364C666.625 146.215 667.35 143.391 668.801 140.891C670.283 138.39 672.273 136.446 674.774 135.057C677.305 133.637 680.068 132.927 683.062 132.927C686.087 132.927 688.849 133.637 691.35 135.057C693.881 136.446 695.872 138.39 697.322 140.891C698.773 143.391 699.499 146.215 699.499 149.364C699.499 152.512 698.773 155.352 697.322 157.883C695.872 160.383 693.881 162.343 691.35 163.763C688.849 165.152 686.087 165.847 683.062 165.847ZM683.062 161.263C685.192 161.263 687.09 160.785 688.757 159.828C690.424 158.84 691.72 157.451 692.646 155.661C693.603 153.839 694.081 151.74 694.081 149.364C694.081 146.987 693.603 144.903 692.646 143.113C691.72 141.323 690.424 139.949 688.757 138.992C687.09 138.035 685.192 137.557 683.062 137.557C680.932 137.557 679.033 138.035 677.367 138.992C675.7 139.949 674.388 141.323 673.431 143.113C672.505 144.903 672.042 146.987 672.042 149.364C672.042 151.74 672.505 153.839 673.431 155.661C674.388 157.451 675.7 158.84 677.367 159.828C679.033 160.785 680.932 161.263 683.062 161.263Z" fill="#B0B0B0"/>
<path d="M617.85 149.364C617.85 146.215 618.575 143.391 620.026 140.891C621.508 138.39 623.499 136.446 625.999 135.057C628.53 133.637 631.293 132.927 634.287 132.927C637.713 132.927 640.754 133.776 643.408 135.473C646.094 137.14 648.038 139.517 649.242 142.604H642.899C642.066 140.906 640.908 139.64 639.426 138.807C637.945 137.974 636.232 137.557 634.287 137.557C632.157 137.557 630.259 138.035 628.592 138.992C626.925 139.949 625.613 141.323 624.656 143.113C623.73 144.903 623.267 146.987 623.267 149.364C623.267 151.74 623.73 153.824 624.656 155.614C625.613 157.405 626.925 158.794 628.592 159.781C630.259 160.738 632.157 161.217 634.287 161.217C636.232 161.217 637.945 160.8 639.426 159.967C640.908 159.133 642.066 157.868 642.899 156.17H649.242C648.038 159.257 646.094 161.633 643.408 163.3C640.754 164.967 637.713 165.801 634.287 165.801C631.262 165.801 628.499 165.106 625.999 163.717C623.499 162.297 621.508 160.337 620.026 157.837C618.575 155.337 617.85 152.512 617.85 149.364Z" fill="#B0B0B0"/>
<path d="M574.705 133.343V165.522H569.426V151.447H554.286V165.522H549.008V133.343H554.286V147.141H569.426V133.343H574.705Z" fill="#B0B0B0"/>
<path d="M530.699 133.343V137.649H522.133V165.522H516.855V137.649H508.243V133.343H530.699Z" fill="#B0B0B0"/>
<path d="M481.648 161.262H492.529V165.522H476.37V133.343H481.648V161.262Z" fill="#B0B0B0"/>
<path d="M450.522 158.947H437.048L434.733 165.522H429.223L440.752 133.296H446.864L458.393 165.522H452.837L450.522 158.947ZM449.04 154.641L443.808 139.686L438.53 154.641H449.04Z" fill="#B0B0B0"/>
<path d="M399.155 137.602V147.048H410.267V151.354H399.155V161.216H411.656V165.522H393.876V133.296H411.656V137.602H399.155Z" fill="#B0B0B0"/>
<path d="M373.963 133.343V165.522H368.685V151.447H353.545V165.522H348.266V133.343H353.545V147.141H368.685V133.343H373.963Z" fill="#B0B0B0"/>
<path d="M291.307 137.602V147.048H302.42V151.354H291.307V161.216H303.809V165.522H286.029V133.296H303.809V137.602H291.307Z" fill="#B0B0B0"/>
<path d="M266.116 133.343V165.522H260.838V151.447H245.697V165.522H240.419V133.343H245.697V147.141H260.838V133.343H266.116Z" fill="#B0B0B0"/>
<path d="M222.11 133.343V137.649H213.544V165.522H208.266V137.649H199.654V133.343H222.11Z" fill="#B0B0B0"/>
<path d="M265.872 37.6867H238.169V95.2326H225.598V37.6867H197.849V24.9419H265.872V37.6867Z" fill="#E5E5E5"/>
<path d="M333.087 53.6872C333.087 51.2293 332.697 49.001 331.913 47.0057C331.131 45.0074 330.026 43.2991 328.609 41.8783C327.185 40.4573 325.478 39.3538 323.483 38.5708C321.487 37.7908 319.292 37.3979 316.893 37.3979H300.03C297.607 37.3979 295.394 37.7908 293.398 38.5708C291.398 39.3538 289.684 40.4573 288.247 41.8783C286.809 43.2991 285.7 45.0074 284.918 47.0057C284.133 49.001 283.743 51.2293 283.743 53.6872V66.8111C283.743 69.272 284.133 71.5002 284.918 73.4955C285.7 75.4909 286.809 77.199 288.247 78.6229C289.684 80.0439 291.398 81.1443 293.398 81.9272C295.394 82.7104 297.607 83.1004 300.03 83.1004H316.798C319.224 83.1004 321.437 82.7104 323.433 81.9272C325.428 81.1443 327.147 80.0439 328.584 78.6229C330.022 77.199 331.131 75.4909 331.913 73.4955C332.697 71.5002 333.087 69.272 333.087 66.8111V53.6872ZM345.543 66.8111C345.543 70.9982 344.824 74.8469 343.386 78.3569C341.951 81.8728 339.953 84.9053 337.398 87.4598C334.842 90.0145 331.818 92.0038 328.319 93.4248C324.825 94.8458 321.016 95.5562 316.893 95.5562H300.03C295.913 95.5562 292.094 94.8458 288.582 93.4248C285.068 92.0038 282.036 90.0145 279.481 87.4598C276.923 84.9053 274.923 81.8728 273.467 78.3569C272.014 74.8469 271.288 70.9982 271.288 66.8111V53.6872C271.288 49.5332 272.014 45.6935 273.467 42.1654C274.923 38.6372 276.923 35.602 279.481 33.0625C282.036 30.523 285.068 28.5367 288.582 27.1005C292.094 25.6616 295.913 24.9419 300.03 24.9419H316.893C321.016 24.9419 324.825 25.6616 328.319 27.1005C331.818 28.5367 334.842 30.523 337.398 33.0625C339.953 35.602 341.951 38.6372 343.386 42.1654C344.824 45.6935 345.543 49.5332 345.543 53.6872V66.8111Z" fill="#E5E5E5"/>
<path d="M426.503 89.281C426.503 90.1759 426.333 91.0042 425.998 91.7722C425.664 92.537 425.218 93.2021 424.658 93.7585C424.1 94.3208 423.438 94.7591 422.669 95.0765C421.905 95.394 421.089 95.5572 420.227 95.5572C419.461 95.5572 418.687 95.4121 417.905 95.1248C417.118 94.8378 416.427 94.3752 415.819 93.7372L370.309 46.2116V94.5988H357.854V31.2193C357.854 29.9436 358.212 28.7827 358.929 27.7455C359.65 26.7086 360.566 25.9316 361.686 25.4207C362.865 24.943 364.081 24.8221 365.328 25.0609C366.572 25.3028 367.643 25.8862 368.538 26.8114L414.046 74.2857V25.9014H426.503V89.281Z" fill="#E5E5E5"/>
<path d="M497.452 65.5686H458.121V53.016H497.452V65.5686ZM503.057 93.6395H458.121C456.398 93.6395 454.514 93.337 452.466 92.7293C450.423 92.1248 448.53 91.124 446.788 89.7363C445.051 88.3457 443.596 86.5438 442.433 84.3217C441.265 82.1027 440.682 79.3786 440.682 76.153V31.2182C440.682 30.3565 440.843 29.5434 441.161 28.7755C441.48 28.0075 441.918 27.3395 442.48 26.7649C443.038 26.1876 443.702 25.74 444.466 25.4226C445.235 25.1022 446.063 24.9419 446.958 24.9419H503.057V37.3979H453.137V76.153C453.137 77.7824 453.57 79.0281 454.432 79.8897C455.294 80.7514 456.554 81.1835 458.216 81.1835H503.057V93.6395Z" fill="#E5E5E5"/>
<path d="M573.959 53.6872C573.959 51.2293 573.569 49.001 572.784 47.0057C572.002 45.0074 570.898 43.2991 569.481 41.8783C568.057 40.4573 566.349 39.3538 564.354 38.5708C562.359 37.7908 560.164 37.3979 557.765 37.3979H540.902C538.478 37.3979 536.265 37.7908 534.27 38.5708C532.27 39.3538 530.555 40.4573 529.118 41.8783C527.68 43.2991 526.572 45.0074 525.789 47.0057C525.005 49.001 524.615 51.2293 524.615 53.6872V66.8111C524.615 69.272 525.005 71.5002 525.789 73.4955C526.572 75.4909 527.68 77.199 529.118 78.6229C530.555 80.0439 532.27 81.1443 534.27 81.9272C536.265 82.7104 538.478 83.1004 540.902 83.1004H557.669C560.096 83.1004 562.306 82.7104 564.304 81.9272C566.299 81.1443 568.018 80.0439 569.453 78.6229C570.893 77.199 572.002 75.4909 572.784 73.4955C573.569 71.5002 573.959 69.272 573.959 66.8111V53.6872ZM586.414 66.8111C586.414 70.9982 585.695 74.8469 584.258 78.3569C582.822 81.8728 580.825 84.9053 578.269 87.4598C575.714 90.0145 572.689 92.0038 569.19 93.4248C565.696 94.8458 561.887 95.5562 557.765 95.5562H540.902C536.784 95.5562 532.966 94.8458 529.453 93.4248C525.939 92.0038 522.907 90.0145 520.352 87.4598C517.794 84.9053 515.79 81.8728 514.339 78.3569C512.885 74.8469 512.16 70.9982 512.16 66.8111V53.6872C512.16 49.5332 512.885 45.6935 514.339 42.1654C515.79 38.6372 517.794 35.602 520.352 33.0625C522.907 30.523 525.939 28.5367 529.453 27.1005C532.966 25.6616 536.784 24.9419 540.902 24.9419H557.765C561.887 24.9419 565.696 25.6616 569.19 27.1005C572.689 28.5367 575.714 30.523 578.269 33.0625C580.825 35.602 582.822 38.6372 584.258 42.1654C585.695 45.6935 586.414 49.5332 586.414 53.6872V66.8111Z" fill="#E5E5E5"/>
<path d="M667.18 53.6872C667.18 56.5289 666.826 59.0685 666.125 61.3058C665.425 63.5399 664.472 65.511 663.275 67.2193C662.08 68.9303 660.695 70.3905 659.133 71.6029C657.566 72.8183 655.931 73.8069 654.224 74.5748C652.512 75.3396 650.788 75.899 649.047 76.2496C647.306 76.6033 645.671 76.7788 644.138 76.7788H615.97V64.3228H644.138C645.734 64.1959 647.179 63.8664 648.473 63.3403C649.766 62.8143 650.877 62.1039 651.804 61.209C652.729 60.314 653.448 59.2347 653.956 57.974C654.469 56.7133 654.725 55.2834 654.725 53.6872V48.0335C654.564 46.4706 654.228 45.0314 653.718 43.7224C653.208 42.4134 652.512 41.2947 651.634 40.3696C650.754 39.4445 649.693 38.7159 648.448 38.1899C647.204 37.6609 645.766 37.3979 644.138 37.3979H616.063C614.403 37.3979 613.142 37.83 612.281 38.6917C611.417 39.5533 610.988 40.799 610.988 42.4284V93.6395H598.531V42.4284C598.531 39.2358 599.111 36.521 600.279 34.2838C601.447 32.0496 602.898 30.2448 604.639 28.8723C606.381 27.4996 608.272 26.4989 610.317 25.8761C612.36 25.2534 614.244 24.9419 615.97 24.9419H644.138C646.95 24.9419 649.471 25.3017 651.707 26.0212C653.942 26.7377 655.913 27.6962 657.62 28.8963C659.332 30.0935 660.783 31.4753 661.983 33.0382C663.18 34.6044 664.169 36.2399 664.953 37.9479C665.735 39.6592 666.3 41.3824 666.654 43.1238C667.005 44.8652 667.18 46.5007 667.18 48.0335V53.6872Z" fill="#E5E5E5"/>
<path fill-rule="evenodd" clip-rule="evenodd" d="M696.052 65.724H735.584V53.1239H696.052V65.724ZM691.051 37.4458H741.163V24.9419H684.847C683.949 24.9419 683.115 25.1022 682.346 25.4228C681.576 25.7434 680.903 26.1923 680.326 26.7694C679.781 27.3465 679.348 28.0198 679.028 28.7893C678.707 29.5587 678.547 30.3763 678.547 31.242V93.906H691.051V37.4458ZM765.832 93.906H753.328V24.9419H765.832V93.906ZM844.749 37.4458H817.192V93.906H804.688V37.4458H777.083V24.9419H844.749V37.4458Z" fill="url(#paint1_linear_690_43877)"/>
</g>
<defs>
<linearGradient id="paint0_linear_690_43877" x1="32.2867" y1="5.01252e-06" x2="179.725" y2="24.7882" gradientUnits="userSpaceOnUse">
<stop stop-color="#59DF74"/>
<stop offset="1" stop-color="#15C0B6"/>
</linearGradient>
<linearGradient id="paint1_linear_690_43877" x1="708.829" y1="24.9419" x2="832.657" y2="82.8583" gradientUnits="userSpaceOnUse">
<stop stop-color="#59DF74"/>
<stop offset="1" stop-color="#15C0B6"/>
</linearGradient>
<clipPath id="clip0_690_43877">
<rect width="843.488" height="195" fill="white" transform="translate(0.581421)"/>
</clipPath>
</defs>
</svg>
