<svg width="270" height="80" viewBox="0 0 270 80" fill="none" xmlns="http://www.w3.org/2000/svg">
<g clipPath="url(#clip0_690_43751)">
<path fill-rule="evenodd" clip-rule="evenodd" d="M259.996 80H10.0037C4.49023 80 0 75.4913 0 70V10C0 4.48878 4.49023 0 10.0037 0H259.996C265.505 0 270 4.48878 270 10V70C270 75.4913 265.505 80 259.996 80Z" fill="black"/>
<path fill-rule="evenodd" clip-rule="evenodd" d="M259.996 1.601C264.621 1.601 268.406 5.37656 268.406 10V70C268.406 74.6234 264.646 78.399 259.996 78.399H10.0037C5.37934 78.399 1.59443 74.6234 1.59443 70V10C1.59443 5.37656 5.3545 1.601 10.0037 1.601C10.0037 1.601 259.996 1.601 259.996 1.601ZM259.996 0H10.0037C4.49023 0 0 4.50873 0 10V70C0 75.5112 4.49023 80 10.0037 80H259.996C265.505 80 270 75.5112 270 70V10C270 4.50873 265.505 0 259.996 0Z" fill="#A6A6A6"/>
<path d="M142.237 26.4639C140.434 26.4639 138.914 25.8305 137.712 24.5836C136.52 23.3716 135.854 21.7008 135.884 19.9951C135.884 18.1746 136.5 16.6335 137.712 15.4115C138.909 14.1647 140.429 13.5312 142.232 13.5312C144.015 13.5312 145.535 14.1647 146.757 15.4115C147.969 16.6734 148.585 18.2145 148.585 19.9951C148.565 21.8205 147.949 23.3617 146.757 24.5786C145.56 25.8355 144.04 26.4639 142.237 26.4639ZM88.5878 26.4639C86.8245 26.4639 85.2947 25.8405 84.043 24.6086C82.8012 23.3816 82.1704 21.8305 82.1704 20.0001C82.1704 18.1697 82.8012 16.6185 84.043 15.3916C85.2698 14.1597 86.7997 13.5362 88.5878 13.5362C89.462 13.5362 90.3114 13.7108 91.126 14.0649C91.9257 14.4091 92.5764 14.8779 93.0582 15.4514L93.1774 15.5961L91.8313 16.9228L91.6922 16.7582C90.9323 15.8505 89.914 15.4066 88.568 15.4066C87.3659 15.4066 86.3179 15.8355 85.4536 16.6834C84.5844 17.5362 84.1423 18.6534 84.1423 20.0051C84.1423 21.3567 84.5844 22.4739 85.4536 23.3268C86.3179 24.1746 87.3659 24.6036 88.568 24.6036C89.8495 24.6036 90.9273 24.1746 91.7667 23.3268C92.2634 22.828 92.5714 22.1298 92.6807 21.247H88.3643V19.3816H94.5334L94.5582 19.5512C94.6029 19.8654 94.6476 20.1896 94.6476 20.4889C94.6476 22.2096 94.131 23.6011 93.1078 24.6285C91.9455 25.8455 90.4256 26.4639 88.5878 26.4639ZM159.919 26.1996H158.017L152.191 16.838L152.24 18.5238V26.1946H150.338V13.8006H152.509L152.568 13.8953L158.047 22.7133L157.997 21.0325V13.8006H159.919V26.1996V26.1996ZM127.942 26.1996H126.014V15.6659H122.672V13.8006H131.28V15.6659H127.937V26.1996H127.942ZM121.102 26.1996H119.18V13.8006H121.102V26.1996ZM110.299 26.1996H108.377V15.6659H105.034V13.8006H113.642V15.6659H110.299V26.1996ZM103.817 26.1796H96.4457V13.8006H103.817V15.6659H98.3729V19.0674H103.285V20.9128H98.3729V24.3143H103.817V26.1796ZM139.122 23.3018C139.982 24.1647 141.025 24.5986 142.237 24.5986C143.484 24.5986 144.502 24.1746 145.351 23.3018C146.196 22.4539 146.623 21.3417 146.623 20.0001C146.623 18.6584 146.196 17.5412 145.356 16.6983C144.497 15.8355 143.449 15.4016 142.242 15.4016C140.995 15.4016 139.977 15.8255 139.132 16.6983C138.288 17.5462 137.861 18.6584 137.861 20.0001C137.861 21.3417 138.283 22.4589 139.122 23.3018Z" fill="white"/>
<path fill-rule="evenodd" clip-rule="evenodd" d="M135.705 43.5113C131.011 43.5113 127.206 47.0874 127.206 52.0201C127.206 56.9078 131.036 60.5288 135.705 60.5288C140.399 60.5288 144.204 56.9278 144.204 52.0201C144.204 47.0874 140.399 43.5113 135.705 43.5113ZM135.705 57.1572C133.137 57.1572 130.927 55.0225 130.927 52.0001C130.927 48.9328 133.142 46.843 135.705 46.843C138.273 46.843 140.483 48.9328 140.483 52.0001C140.488 55.0425 138.273 57.1572 135.705 57.1572ZM117.163 43.5113C112.469 43.5113 108.664 47.0874 108.664 52.0201C108.664 56.9078 112.494 60.5288 117.163 60.5288C121.857 60.5288 125.662 56.9278 125.662 52.0201C125.662 47.0874 121.852 43.5113 117.163 43.5113ZM117.163 57.1572C114.595 57.1572 112.385 55.0225 112.385 52.0001C112.385 48.9328 114.6 46.843 117.163 46.843C119.731 46.843 121.941 48.9328 121.941 52.0001C121.941 55.0425 119.731 57.1572 117.163 57.1572ZM95.0993 46.1098V49.7108H103.707C103.444 51.7308 102.778 53.222 101.76 54.2445C100.498 55.5113 98.5514 56.8879 95.1191 56.8879C89.8292 56.8879 85.6916 52.5986 85.6916 47.2869C85.6916 41.9752 89.8292 37.6859 95.1191 37.6859C97.9752 37.6859 100.056 38.8181 101.601 40.2644L104.144 37.7108C101.999 35.646 99.1425 34.0649 95.139 34.0649C87.8821 34.0649 81.7925 40.0001 81.7925 47.2669C81.7925 54.5537 87.8772 60.4689 95.139 60.4689C99.058 60.4689 101.999 59.1821 104.323 56.7582C106.692 54.3792 107.442 51.0225 107.442 48.3143C107.442 47.4714 107.378 46.7133 107.244 46.0699H95.0943C95.0993 46.0649 95.0993 46.1098 95.0993 46.1098ZM185.346 48.9128C184.636 47.0026 182.49 43.4914 178.089 43.4914C173.728 43.4914 170.102 46.9378 170.102 52.0001C170.102 56.7782 173.688 60.5088 178.511 60.5088C182.386 60.5088 184.641 58.1298 185.57 56.7333L182.694 54.7981C181.74 56.2196 180.414 57.1522 178.531 57.1522C176.629 57.1522 175.298 56.2844 174.414 54.5737L185.743 49.8605C185.743 49.8654 185.346 48.9128 185.346 48.9128ZM173.793 51.7557C173.703 48.4689 176.336 46.7981 178.218 46.7981C179.703 46.7981 180.94 47.5313 181.363 48.5986L173.793 51.7557ZM164.589 60.0001H168.309V35.0026H164.589V60.0001ZM158.479 45.4016H158.345C157.506 44.3991 155.911 43.4914 153.875 43.4914C149.648 43.4914 145.754 47.227 145.754 52.025C145.754 56.8031 149.628 60.4939 153.875 60.4939C155.886 60.4939 157.506 59.5811 158.345 58.5587H158.479V59.7806C158.479 63.0275 156.751 64.7782 153.964 64.7782C151.684 64.7782 150.269 63.1323 149.692 61.7557L146.459 63.1123C147.388 65.3567 149.866 68.1348 153.959 68.1348C158.32 68.1348 162.016 65.5562 162.016 59.2669V44.0001H158.499V45.4016C158.504 45.4016 158.479 45.4016 158.479 45.4016ZM154.207 57.1572C151.64 57.1572 149.494 55.0026 149.494 52.025C149.494 49.0225 151.64 46.848 154.207 46.848C156.751 46.848 158.723 49.0475 158.723 52.025C158.747 55.0026 156.756 57.1572 154.207 57.1572ZM202.766 35.0026H193.87V60.0001H197.59V50.5338H202.771C206.888 50.5338 210.936 47.5363 210.936 42.7782C210.936 38.0201 206.903 35.0026 202.766 35.0026ZM202.875 47.0425H197.585V38.4639H202.875C205.661 38.4639 207.236 40.7732 207.236 42.7532C207.236 44.7133 205.642 47.0425 202.875 47.0425ZM225.848 43.4664C223.146 43.4664 220.359 44.6684 219.207 47.2869L222.505 48.6634C223.215 47.2869 224.516 46.8181 225.892 46.8181C227.82 46.8181 229.767 47.9752 229.811 50.04V50.3043C229.146 49.9253 227.685 49.3467 225.937 49.3467C222.376 49.3467 218.765 51.3018 218.765 54.9677C218.765 58.3243 221.685 60.4789 224.939 60.4789C227.437 60.4789 228.813 59.3467 229.672 58.035H229.806V59.9702H233.393V50.3941C233.393 45.9353 230.094 43.4664 225.848 43.4664ZM225.381 57.1572C224.164 57.1572 222.46 56.5587 222.46 55.0225C222.46 53.0874 224.586 52.3542 226.399 52.3542C228.038 52.3542 228.813 52.7083 229.787 53.1971C229.518 55.4415 227.631 57.1373 225.381 57.1572ZM246.476 44.0001L242.204 54.843H242.07L237.644 44.0001H233.641L240.282 59.1572L236.497 67.5811H240.371L250.589 44.0001H246.476ZM212.988 60.0001H216.708V35.0026H212.988V60.0001Z" fill="white"/>
<path fill-rule="evenodd" clip-rule="evenodd" d="M20.7825 15.0673C20.2063 15.6907 19.8735 16.6433 19.8735 17.8902V62.1147C19.8735 63.3615 20.2063 64.3142 20.8024 64.9127L20.9564 65.0473L45.6328 40.2693V39.7157L20.9365 14.9326L20.7825 15.0673Z" fill="url(#paint0_linear_690_43751)"/>
<path fill-rule="evenodd" clip-rule="evenodd" d="M53.8428 48.5535L45.6123 40.2892V39.7106L53.8428 31.4463L54.0216 31.556L63.7571 37.1121C66.5437 38.6882 66.5437 41.2917 63.7571 42.8877L54.0216 48.4438L53.8428 48.5535Z" fill="url(#paint1_linear_690_43751)"/>
<path fill-rule="evenodd" clip-rule="evenodd" d="M54.0219 48.4439L45.6126 40L20.7822 64.9327C21.6912 65.9102 23.2161 66.0199 24.9198 65.0673L54.0219 48.4439Z" fill="url(#paint2_linear_690_43751)"/>
<path fill-rule="evenodd" clip-rule="evenodd" d="M54.0219 31.5559L24.9198 14.9574C23.2161 13.9798 21.6862 14.1145 20.7822 15.0921L45.6126 39.9998L54.0219 31.5559Z" fill="url(#paint3_linear_690_43751)"/>
<path opacity="0.2" fill-rule="evenodd" clip-rule="evenodd" d="M53.8429 48.2646L24.9394 64.7534C23.325 65.686 21.8846 65.6212 20.9557 64.7733L20.8018 64.9279L20.9557 65.0626C21.8846 65.9055 23.325 65.9753 24.9394 65.0426L54.0416 48.4442L53.8429 48.2646Z" fill="black"/>
<path opacity="0.12" fill-rule="evenodd" clip-rule="evenodd" d="M63.7575 42.5985L53.8184 48.2643L53.9972 48.4439L63.7326 42.8878C65.1284 42.0898 65.8138 41.0424 65.8138 40C65.7294 40.9576 65.0191 41.8653 63.7575 42.5985Z" fill="black"/>
<path opacity="0.25" fill-rule="evenodd" clip-rule="evenodd" d="M24.9201 15.2471L63.7576 37.4017C65.0192 38.1149 65.7295 39.0476 65.8388 40.0002C65.8388 38.9578 65.1533 37.9104 63.7576 37.1124L24.9201 14.9578C22.1336 13.3568 19.8735 14.6935 19.8735 17.8905V18.1797C19.8735 14.9777 22.1336 13.666 24.9201 15.2471Z" fill="white"/>
</g>
<defs>
<linearGradient id="paint0_linear_690_43751" x1="43.4193" y1="17.4131" x2="3.87052" y2="27.9077" gradientUnits="userSpaceOnUse">
<stop stopColor="#00A0FF"/>
<stop offset="0.00657" stopColor="#00A1FF"/>
<stop offset="0.2601" stopColor="#00BEFF"/>
<stop offset="0.5122" stopColor="#00D2FF"/>
<stop offset="0.7604" stopColor="#00DFFF"/>
<stop offset="1" stopColor="#00E3FF"/>
</linearGradient>
<linearGradient id="paint1_linear_690_43751" x1="67.391" y1="40" x2="19.1955" y2="40" gradientUnits="userSpaceOnUse">
<stop stopColor="#FFE000"/>
<stop offset="0.4087" stopColor="#FFBD00"/>
<stop offset="0.7754" stopColor="#FFA500"/>
<stop offset="1" stopColor="#FF9C00"/>
</linearGradient>
<linearGradient id="paint2_linear_690_43751" x1="49.4492" y1="44.5947" x2="17.5237" y2="98.1076" gradientUnits="userSpaceOnUse">
<stop stopColor="#FF3A44"/>
<stop offset="1" stopColor="#C31162"/>
</linearGradient>
<linearGradient id="paint3_linear_690_43751" x1="14.5297" y1="0.357366" x2="28.773" y2="24.2571" gradientUnits="userSpaceOnUse">
<stop stopColor="#32A071"/>
<stop offset="0.0685" stopColor="#2DA771"/>
<stop offset="0.4762" stopColor="#15CF74"/>
<stop offset="0.8009" stopColor="#06E775"/>
<stop offset="1" stopColor="#00F076"/>
</linearGradient>
<clipPath id="clip0_690_43751">
<rect width="270" height="80" fill="white"/>
</clipPath>
</defs>
</svg>
