<svg width="148" height="82" viewBox="0 0 148 82" fill="none" xmlns="http://www.w3.org/2000/svg">
<path fill-rule="evenodd" clip-rule="evenodd" d="M82.8779 4.32676C82.587 2.58799 82.1803 0.905944 80.4175 0H66.8843C66.8756 0.00955994 66.8674 0.0199596 66.8592 0.0303809L66.8592 0.0303895C66.84 0.0547169 66.8206 0.0791611 66.7956 0.0933162C66.0545 0.510907 65.5879 1.14934 65.2893 1.93165C64.8507 3.08332 64.6587 4.28401 64.5724 5.50564C64.5342 6.04145 64.6151 6.12234 65.1509 6.12234C67.1784 6.12285 69.2056 6.12268 71.2329 6.12251C72.2466 6.12243 73.2603 6.12234 74.2741 6.12234C75.1744 6.12234 76.0745 6.12243 76.9747 6.12251C78.775 6.12268 80.5753 6.12285 82.3763 6.12234C82.8701 6.12234 82.9774 6.01736 82.9603 5.52045C82.9578 5.45253 82.9556 5.38449 82.9535 5.31641C82.9431 4.98466 82.9327 4.65196 82.8779 4.32676ZM92.1125 13.6078C92.3496 13.6078 92.5837 13.6008 92.7525 13.3963V12.8325C92.6931 12.8007 92.6897 12.7468 92.6862 12.6935C92.6852 12.6776 92.6842 12.6618 92.6817 12.6466C92.2299 9.94125 90.0494 7.87972 87.3098 7.6091C86.3032 7.50957 85.2922 7.52471 84.2817 7.53984H84.2817H84.2816H84.2816C83.8947 7.54563 83.5079 7.55142 83.1215 7.55078C78.132 7.54448 73.143 7.54775 68.154 7.55103H68.1534H68.1532H68.1531C65.7555 7.5526 63.3579 7.55417 60.9604 7.55469C60.4883 7.55469 60.0225 7.6021 59.5614 7.69384C56.9462 8.2149 54.929 10.5229 54.7307 13.2003C54.7105 13.4803 54.8248 13.5907 55.0838 13.5946C55.177 13.5964 55.2702 13.5963 55.3634 13.5962H55.3635L55.436 13.5961L92.1125 13.6078ZM81.0635 30.073V37.7203C81.0635 40.554 79.401 42.803 76.6831 43.6366C76.3254 43.7462 75.9607 43.8419 75.5921 43.9095C75.1947 43.9834 75.0501 43.8613 75.0026 43.4647C74.9896 43.3518 74.9899 43.2377 74.9901 43.124L74.9902 43.0775C74.9899 42.5093 74.9902 41.9411 74.9904 41.373C74.9909 40.4609 74.9913 39.5488 74.9894 38.6364C74.9855 36.4865 74.9811 34.3367 74.9767 32.1869C74.9691 28.4162 74.9614 24.6457 74.9559 20.8752C74.9552 19.7896 75.0687 18.7211 75.484 17.7009C76.0859 16.2234 77.0284 15.5826 78.6249 15.5818L78.6365 15.5818C82.6608 15.5779 86.6859 15.574 90.7101 15.5694C90.8927 15.569 91.0752 15.564 91.2577 15.5591L91.2577 15.559C91.5095 15.5522 91.7611 15.5453 92.0127 15.5507C92.5026 15.5608 92.6433 15.7342 92.5896 16.2101C92.2685 19.0773 89.8251 21.2718 86.9393 21.2796C85.8204 21.2831 84.7022 21.2823 83.5839 21.2816C82.9761 21.2812 82.3682 21.2808 81.7603 21.2811C81.1537 21.2811 81.0635 21.3705 81.0635 21.9678V30.073ZM72.3236 43.2967V31.7706C72.3236 30.7795 72.3235 29.7884 72.3233 28.7973C72.3228 26.1698 72.3224 23.5421 72.3251 20.9148C72.326 20.0641 72.2396 19.2258 72.0281 18.4038C71.8135 17.5709 71.4806 16.8019 70.7738 16.2568C69.9332 15.6074 68.9456 15.4916 67.9346 15.5281C66.2091 15.5903 64.4835 15.5911 62.7579 15.5911C61.2127 15.5911 59.6676 15.5856 58.1222 15.58C57.1423 15.5765 56.1623 15.573 55.1822 15.5709C54.7428 15.5701 54.6635 15.6642 54.707 16.0927C55.0127 19.0936 57.414 21.2725 60.4289 21.2803C61.4214 21.2825 62.4138 21.2819 63.4063 21.2813C64.1285 21.2809 64.8507 21.2804 65.573 21.2811C66.1391 21.2818 66.2433 21.3907 66.2495 21.967C66.251 22.058 66.2503 22.1499 66.2495 22.2417L66.2495 22.2484C66.2484 24.0576 66.2467 25.8669 66.2449 27.6761C66.2416 31.0248 66.2384 34.3735 66.2394 37.7218C66.2409 40.991 68.5536 43.5767 71.7101 43.8566C72.3135 43.9103 72.3236 43.9033 72.3236 43.2967Z" fill="url(#paint0_linear_737_29993)"/>
<path d="M15.5047 53.0368H9.19014V66.1533H6.32498V53.0368H0V50.1318H15.5047V53.0368Z" fill="#292929"/>
<path d="M30.8253 56.6838C30.8253 56.1236 30.7364 55.6157 30.5575 55.1609C30.3792 54.7054 30.1276 54.316 29.8045 53.9922C29.48 53.6683 29.0908 53.4168 28.636 53.2383C28.1812 53.0605 27.6809 52.971 27.1341 52.971H23.2905C22.738 52.971 22.2336 53.0605 21.7788 53.2383C21.323 53.4168 20.9322 53.6683 20.6046 53.9922C20.2769 54.316 20.0242 54.7054 19.8459 55.1609C19.6671 55.6157 19.5782 56.1236 19.5782 56.6838V59.6752C19.5782 60.2361 19.6671 60.744 19.8459 61.1988C20.0242 61.6536 20.2769 62.0429 20.6046 62.3675C20.9322 62.6914 21.323 62.9422 21.7788 63.1206C22.2336 63.2991 22.738 63.388 23.2905 63.388H27.1124C27.6654 63.388 28.1698 63.2991 28.6246 63.1206C29.0794 62.9422 29.4712 62.6914 29.7989 62.3675C30.1265 62.0429 30.3792 61.6536 30.5575 61.1988C30.7364 60.744 30.8253 60.2361 30.8253 59.6752V56.6838ZM33.6642 59.6752C33.6642 60.6295 33.5003 61.5068 33.1727 62.3068C32.8455 63.1082 32.3902 63.7994 31.8077 64.3817C31.2253 64.964 30.5358 65.4174 29.7384 65.7413C28.942 66.0652 28.0737 66.2271 27.1341 66.2271H23.2905C22.352 66.2271 21.4816 66.0652 20.6811 65.7413C19.88 65.4174 19.189 64.964 18.6065 64.3817C18.0236 63.7994 17.5677 63.1082 17.2359 62.3068C16.9046 61.5068 16.7393 60.6295 16.7393 59.6752V56.6838C16.7393 55.737 16.9046 54.8618 17.2359 54.0576C17.5677 53.2534 18.0236 52.5616 18.6065 51.9828C19.189 51.4039 19.88 50.9512 20.6811 50.6239C21.4816 50.2959 22.352 50.1318 23.2905 50.1318H27.1341C28.0737 50.1318 28.942 50.2959 29.7384 50.6239C30.5358 50.9512 31.2253 51.4039 31.8077 51.9828C32.3902 52.5616 32.8455 53.2534 33.1727 54.0576C33.5003 54.8618 33.6642 55.737 33.6642 56.6838V59.6752Z" fill="#292929"/>
<path d="M52.1175 64.7968C52.1175 65.0008 52.0788 65.1896 52.0023 65.3646C51.9263 65.5389 51.8245 65.6905 51.6968 65.8173C51.5697 65.9455 51.4188 66.0454 51.2436 66.1178C51.0694 66.1901 50.8834 66.2273 50.687 66.2273C50.5123 66.2273 50.3361 66.1943 50.1578 66.1288C49.9784 66.0634 49.8208 65.9579 49.6823 65.8125L39.3091 54.9799V66.0089H36.4702V51.5626C36.4702 51.2719 36.5519 51.0073 36.7152 50.7709C36.8795 50.5345 37.0883 50.3574 37.3436 50.241C37.6124 50.1321 37.8894 50.1045 38.1737 50.159C38.4574 50.2141 38.7013 50.3471 38.9055 50.5579L49.2781 61.3789V50.3505H52.1175V64.7968Z" fill="#292929"/>
<path d="M68.2893 59.392H59.3245V56.5308H68.2893V59.392ZM69.5669 65.7902H59.3245C58.9317 65.7902 58.5022 65.7213 58.0355 65.5828C57.5699 65.445 57.1383 65.2169 56.7414 64.9006C56.3455 64.5836 56.0137 64.1729 55.7486 63.6664C55.4824 63.1606 55.3496 62.5397 55.3496 61.8045V51.5624C55.3496 51.366 55.3863 51.1807 55.4587 51.0056C55.5315 50.8306 55.6313 50.6783 55.7594 50.5474C55.8866 50.4158 56.038 50.3138 56.2122 50.2414C56.3874 50.1684 56.576 50.1318 56.7802 50.1318H69.5669V52.971H58.1885V61.8045C58.1885 62.1759 58.2872 62.4598 58.4836 62.6562C58.68 62.8526 58.9674 62.9511 59.3462 62.9511H69.5669V65.7902Z" fill="#292929"/>
<path d="M85.7276 56.6838C85.7276 56.1236 85.6387 55.6157 85.4599 55.1609C85.2816 54.7054 85.0299 54.316 84.7069 53.9922C84.3823 53.6683 83.9931 53.4168 83.5383 53.2383C83.0835 53.0605 82.5833 52.971 82.0365 52.971H78.1928C77.6404 52.971 77.1359 53.0605 76.6811 53.2383C76.2253 53.4168 75.8346 53.6683 75.5069 53.9922C75.1793 54.316 74.9265 54.7054 74.7482 55.1609C74.5694 55.6157 74.4805 56.1236 74.4805 56.6838V59.6752C74.4805 60.2361 74.5694 60.744 74.7482 61.1988C74.9265 61.6536 75.1793 62.0429 75.5069 62.3675C75.8346 62.6914 76.2253 62.9422 76.6811 63.1206C77.1359 63.2991 77.6404 63.388 78.1928 63.388H82.0147C82.5677 63.388 83.0716 63.2991 83.527 63.1206C83.9818 62.9422 84.3735 62.6914 84.7007 62.3675C85.0289 62.0429 85.2816 61.6536 85.4599 61.1988C85.6387 60.744 85.7276 60.2361 85.7276 59.6752V56.6838ZM88.5665 59.6752C88.5665 60.6295 88.4027 61.5068 88.075 62.3068C87.7479 63.1082 87.2925 63.7994 86.7101 64.3817C86.1276 64.964 85.4382 65.4174 84.6407 65.7413C83.8443 66.0652 82.976 66.2271 82.0365 66.2271H78.1928C77.2543 66.2271 76.384 66.0652 75.5834 65.7413C74.7823 65.4174 74.0913 64.964 73.5089 64.3817C72.9259 63.7994 72.469 63.1082 72.1383 62.3068C71.807 61.5068 71.6416 60.6295 71.6416 59.6752V56.6838C71.6416 55.737 71.807 54.8618 72.1383 54.0576C72.469 53.2534 72.9259 52.5616 73.5089 51.9828C74.0913 51.4039 74.7823 50.9512 75.5834 50.6239C76.384 50.2959 77.2543 50.1318 78.1928 50.1318H82.0365C82.976 50.1318 83.8443 50.2959 84.6407 50.6239C85.4382 50.9512 86.1276 51.4039 86.7101 51.9828C87.2925 52.5616 87.7479 53.2534 88.075 54.0576C88.4027 54.8618 88.5665 55.737 88.5665 56.6838V59.6752Z" fill="#292929"/>
<path d="M106.975 56.6838C106.975 57.3315 106.895 57.9104 106.735 58.4203C106.575 58.9296 106.358 59.3788 106.085 59.7682C105.813 60.1582 105.497 60.491 105.141 60.7674C104.784 61.0444 104.411 61.2697 104.022 61.4448C103.632 61.6191 103.239 61.7466 102.842 61.8265C102.445 61.9071 102.073 61.9471 101.723 61.9471H95.303V59.108H101.723C102.087 59.0791 102.417 59.004 102.712 58.8841C103.006 58.7642 103.259 58.6023 103.471 58.3983C103.682 58.1943 103.846 57.9483 103.961 57.6609C104.078 57.3736 104.137 57.0476 104.137 56.6838V55.3952C104.1 55.0389 104.023 54.7109 103.907 54.4125C103.791 54.1142 103.632 53.8592 103.432 53.6483C103.232 53.4374 102.99 53.2714 102.706 53.1515C102.422 53.0309 102.095 52.971 101.723 52.971H95.3242C94.9459 52.971 94.6585 53.0695 94.4621 53.2658C94.2652 53.4622 94.1675 53.7462 94.1675 54.1176V65.7902H91.3281V54.1176C91.3281 53.3899 91.4604 52.7711 91.7266 52.2611C91.9928 51.7519 92.3235 51.3405 92.7204 51.0277C93.1174 50.7148 93.5484 50.4867 94.0146 50.3448C94.4802 50.2028 94.9097 50.1318 95.303 50.1318H101.723C102.364 50.1318 102.939 50.2139 103.449 50.3778C103.958 50.5412 104.407 50.7596 104.797 51.0332C105.187 51.3061 105.517 51.621 105.791 51.9773C106.064 52.3342 106.289 52.707 106.468 53.0963C106.646 53.4864 106.775 53.8792 106.856 54.2761C106.936 54.673 106.975 55.0458 106.975 55.3952V56.6838Z" fill="#292929"/>
<path fill-rule="evenodd" clip-rule="evenodd" d="M113.556 59.4274H122.567V56.5554H113.556V59.4274ZM112.416 52.9819H123.839V50.1318H111.002C110.798 50.1318 110.608 50.1684 110.432 50.2415C110.257 50.3145 110.104 50.4168 109.972 50.5484C109.848 50.6799 109.749 50.8334 109.676 51.0088C109.603 51.1842 109.566 51.3705 109.566 51.5678V65.851H112.416V52.9819ZM129.462 65.851H126.611V50.1318H129.462V65.851ZM147.449 52.9819H141.168V65.851H138.318V52.9819H132.026V50.1318H147.449V52.9819Z" fill="url(#paint1_linear_737_29993)"/>
<path d="M146.404 74.5913V81.926H145.2V78.7177H141.749V81.926H140.546V74.5913H141.749V77.7363H145.2V74.5913H146.404Z" fill="#444444"/>
<path d="M129.028 78.2431C129.028 77.5254 129.193 76.8817 129.524 76.3118C129.862 75.7419 130.316 75.2986 130.885 74.982C131.462 74.6584 132.092 74.4966 132.775 74.4966C133.556 74.4966 134.249 74.6901 134.854 75.077C135.466 75.457 135.909 75.9987 136.183 76.7023H134.738C134.548 76.3153 134.284 76.0268 133.946 75.8369C133.608 75.6469 133.218 75.5519 132.775 75.5519C132.289 75.5519 131.856 75.661 131.476 75.8791C131.097 76.0972 130.798 76.4103 130.579 76.8184C130.368 77.2264 130.263 77.7013 130.263 78.2431C130.263 78.7848 130.368 79.2597 130.579 79.6678C130.798 80.0759 131.097 80.3925 131.476 80.6176C131.856 80.8357 132.289 80.9448 132.775 80.9448C133.218 80.9448 133.608 80.8498 133.946 80.6598C134.284 80.4699 134.548 80.1814 134.738 79.7944H136.183C135.909 80.498 135.466 81.0398 134.854 81.4197C134.249 81.7996 133.556 81.9896 132.775 81.9896C132.085 81.9896 131.455 81.8313 130.885 81.5147C130.316 81.191 129.862 80.7443 129.524 80.1744C129.193 79.6045 129.028 78.9607 129.028 78.2431Z" fill="#444444"/>
<path d="M123.537 80.4277H120.466L119.939 81.9263H118.683L121.311 74.5811H122.704L125.332 81.9263H124.065L123.537 80.4277ZM123.2 79.4462L122.007 76.0374L120.804 79.4462H123.2Z" fill="#444444"/>
<path d="M111.23 82.0001C110.547 82.0001 109.918 81.8418 109.341 81.5252C108.771 81.2016 108.317 80.7548 107.979 80.1849C107.649 79.608 107.483 78.9607 107.483 78.2431C107.483 77.5254 107.649 76.8817 107.979 76.3118C108.317 75.7419 108.771 75.2986 109.341 74.982C109.918 74.6584 110.547 74.4966 111.23 74.4966C111.919 74.4966 112.549 74.6584 113.119 74.982C113.696 75.2986 114.15 75.7419 114.48 76.3118C114.811 76.8817 114.976 77.5254 114.976 78.2431C114.976 78.9607 114.811 79.608 114.48 80.1849C114.15 80.7548 113.696 81.2016 113.119 81.5252C112.549 81.8418 111.919 82.0001 111.23 82.0001ZM111.23 80.9553C111.715 80.9553 112.148 80.8463 112.528 80.6282C112.908 80.403 113.203 80.0864 113.414 79.6784C113.633 79.2633 113.742 78.7848 113.742 78.2431C113.742 77.7013 113.633 77.2264 113.414 76.8184C113.203 76.4103 112.908 76.0972 112.528 75.8791C112.148 75.661 111.715 75.5519 111.23 75.5519C110.744 75.5519 110.312 75.661 109.932 75.8791C109.552 76.0972 109.253 76.4103 109.035 76.8184C108.824 77.2264 108.718 77.7013 108.718 78.2431C108.718 78.7848 108.824 79.2633 109.035 79.6784C109.253 80.0864 109.552 80.403 109.932 80.6282C110.312 80.8463 110.744 80.9553 111.23 80.9553Z" fill="#444444"/>
<path d="M96.3662 78.2431C96.3662 77.5254 96.5316 76.8817 96.8622 76.3118C97.1999 75.7419 97.6537 75.2986 98.2236 74.982C98.8006 74.6584 99.4302 74.4966 100.113 74.4966C100.894 74.4966 101.587 74.6901 102.192 75.077C102.804 75.457 103.247 75.9987 103.521 76.7023H102.076C101.886 76.3153 101.622 76.0268 101.284 75.8369C100.946 75.6469 100.556 75.5519 100.113 75.5519C99.6272 75.5519 99.1946 75.661 98.8146 75.8791C98.4347 76.0972 98.1357 76.4103 97.9176 76.8184C97.7065 77.2264 97.601 77.7013 97.601 78.2431C97.601 78.7848 97.7065 79.2597 97.9176 79.6678C98.1357 80.0759 98.4347 80.3925 98.8146 80.6176C99.1946 80.8357 99.6272 80.9448 100.113 80.9448C100.556 80.9448 100.946 80.8498 101.284 80.6598C101.622 80.4699 101.886 80.1814 102.076 79.7944H103.521C103.247 80.498 102.804 81.0398 102.192 81.4197C101.587 81.7996 100.894 81.9896 100.113 81.9896C99.4232 81.9896 98.7935 81.8313 98.2236 81.5147C97.6537 81.191 97.1999 80.7443 96.8622 80.1744C96.5316 79.6045 96.3662 78.9607 96.3662 78.2431Z" fill="#444444"/>
<path d="M86.532 74.5913V81.926H85.3289V78.7177H81.8779V81.926H80.6748V74.5913H81.8779V77.7363H85.3289V74.5913H86.532Z" fill="#444444"/>
<path d="M76.5015 74.5913V75.5728H74.5491V81.926H73.346V75.5728H71.3831V74.5913H76.5015Z" fill="#444444"/>
<path d="M65.3213 80.9551H67.8013V81.926H64.1182V74.5913H65.3213V80.9551Z" fill="#444444"/>
<path d="M58.2264 80.4277H55.1554L54.6277 81.9263H53.3718L55.9997 74.5811H57.3927L60.0205 81.9263H58.7541L58.2264 80.4277ZM57.8887 79.4462L56.6962 76.0374L55.4931 79.4462H57.8887Z" fill="#444444"/>
<path d="M46.5183 75.5625V77.7155H49.0511V78.6969H46.5183V80.9448H49.3677V81.9263H45.3152V74.5811H49.3677V75.5625H46.5183Z" fill="#444444"/>
<path d="M40.7764 74.5913V81.926H39.5733V78.7177H36.1223V81.926H34.9192V74.5913H36.1223V77.7363H39.5733V74.5913H40.7764Z" fill="#444444"/>
<path d="M21.9365 75.5625V77.7155H24.4693V78.6969H21.9365V80.9448H24.7859V81.9263H20.7334V74.5811H24.7859V75.5625H21.9365Z" fill="#444444"/>
<path d="M16.1946 74.5913V81.926H14.9915V78.7177H11.5405V81.926H10.3374V74.5913H11.5405V77.7363H14.9915V74.5913H16.1946Z" fill="#444444"/>
<path d="M6.16411 74.5913V75.5728H4.21171V81.926H3.00861V75.5728H1.04565V74.5913H6.16411Z" fill="#444444"/>
<defs>
<linearGradient id="paint0_linear_737_29993" x1="61.6305" y1="1.14251e-06" x2="95.2364" y2="5.65002" gradientUnits="userSpaceOnUse">
<stop stop-color="#59DF74"/>
<stop offset="1" stop-color="#15C0B6"/>
</linearGradient>
<linearGradient id="paint1_linear_737_29993" x1="116.469" y1="50.1318" x2="144.693" y2="63.3328" gradientUnits="userSpaceOnUse">
<stop stop-color="#59DF74"/>
<stop offset="1" stop-color="#15C0B6"/>
</linearGradient>
</defs>
</svg>
